<svg xmlns="http://www.w3.org/2000/svg" xmlns:xlink="http://www.w3.org/1999/xlink" viewBox="0 0 437.33 490.67"><defs><style>.a,.c{fill:none;}.b{clip-path:url(#a);}.c{stroke:#000;stroke-linejoin:round;stroke-width:21.33px;}</style><clipPath id="a"><rect class="a" x="-42.67" y="-10.67" width="512" height="512"/></clipPath></defs><title>all_formats</title><g class="b"><path class="c" d="M405.33,373.33H138.67A21.33,21.33,0,0,1,117.33,352V32a21.33,21.33,0,0,1,21.33-21.33h160l128,128V352A21.33,21.33,0,0,1,405.33,373.33Z"/></g><g class="b"><polyline class="c" points="298.67 21.33 298.67 138.67 426.67 138.67"/></g><g class="b"><path class="c" d="M373.33,373.33v32A21.33,21.33,0,0,1,352,426.67H85.33A21.33,21.33,0,0,1,64,405.33v-320A21.33,21.33,0,0,1,85.33,64h32"/></g><g class="b"><path class="c" d="M320,426.67v32A21.33,21.33,0,0,1,298.67,480H32a21.33,21.33,0,0,1-21.33-21.33v-320A21.33,21.33,0,0,1,32,117.33H64"/></g></svg>