<svg xmlns="http://www.w3.org/2000/svg" viewBox="0 0 55.98 40.86"><title>elephant</title><path d="M53.12,30.25a8,8,0,0,1-6.44,2.32c-6.4-.47-8-6.84-8.56-9.39a14.53,14.53,0,0,1-3.81,1.05,19.86,19.86,0,0,0,1.07,6.08,16.37,16.37,0,0,1,.85,4.1,5,5,0,0,0,.37,1.18c0.47,1.21,1.46,3.71-1.21,4.77a11.37,11.37,0,0,1-5.67.22,2.43,2.43,0,0,1-1.67-1c-0.82-1.23-.39-3.1-0.08-4.46V35a14.26,14.26,0,0,0-1.85-3.47c-0.41-.65-0.81-1.27-1.13-1.84-3.09,1.63-7,1.45-9.39,1.35a17.51,17.51,0,0,0-1.81,0c-0.45.57-1,1.13-1.45,1.66-0.64.69-1.83,2-1.75,2.36,0.05,0.12.14,0.27,0.23,0.43,0.49,0.9,1.31,2.4.69,4-0.15.39-.54,1.39-4.44,1.39a37.33,37.33,0,0,1-4-.25A1,1,0,0,1,2.26,40a11.73,11.73,0,0,1-.54-4.39,50.52,50.52,0,0,1,.75-6.18,16.13,16.13,0,0,0,.38-4v0a2.3,2.3,0,0,1-1.29-.08A1.87,1.87,0,0,1,.4,23.89c0-.14-3.12-14.18,8.42-19.11C12.6,3.17,17,3.3,20.27,3.4c1.57,0,3.7.11,4.19-.21A8.15,8.15,0,0,1,31.24,0a7.86,7.86,0,0,1,5.82,3.26L38,3.47c2.92,0.59,8.36,1.68,9.3,10.23A23.42,23.42,0,0,1,47,18c-0.27,2.63-.65,6.23.27,7.36a0.75,0.75,0,0,0,.55.29c1.27,0.13,2.49-.19,3.51-5.51a1,1,0,0,1,.82-0.8s2.31-.33,3.24.39a1.23,1.23,0,0,1,.49.87C56.26,24.67,55.26,28.08,53.12,30.25ZM54,21.33a6.34,6.34,0,0,0-.77,0c-0.76,3.62-2,6.74-5.53,6.38a2.76,2.76,0,0,1-1.9-1c-1.44-1.77-1.07-5.36-.71-8.83a23.21,23.21,0,0,0,.22-3.93C44.5,6.82,40.49,6,37.57,5.43a14.69,14.69,0,0,1-1.44-.33,1,1,0,0,1-.55-0.43A5.89,5.89,0,0,0,31.11,2,6.06,6.06,0,0,0,26,4.52a8.19,8.19,0,0,0-1.07,8.17,6,6,0,0,0,4.51,3.71,1,1,0,0,1-.12,2H29.15a8,8,0,0,1-6.1-4.89,9.81,9.81,0,0,1,.11-8.07c-0.83,0-1.81,0-3,0C17,5.3,13,5.18,9.61,6.62c-9.75,4.17-7.43,16-7.26,16.78A1.37,1.37,0,0,0,3,23.15a1,1,0,0,1,1.57.77,1,1,0,0,0,0,.21,2.77,2.77,0,0,1,.27,1.07,17.42,17.42,0,0,1-.4,4.53,48.56,48.56,0,0,0-.72,5.95,10.74,10.74,0,0,0,.25,3,18.75,18.75,0,0,0,5.71-.1,3.41,3.41,0,0,0-.63-2.14c-0.12-.22-0.23-0.42-0.3-0.58-0.68-1.53.67-3,2.11-4.53a22.16,22.16,0,0,0,1.47-1.69A10.91,10.91,0,0,0,14,19.44a1,1,0,0,1,1.84-.78A12.77,12.77,0,0,1,15,29l0.64,0c2.38,0.11,5.87.24,8.47-1.2L23,25a1,1,0,0,1,1.85-.75l1.48,3.64v0h0a18,18,0,0,0,1.46,2.54c1.12,1.75,2.17,3.4,2.17,4.64a1,1,0,0,1,0,.22l0,0.2c-0.19.83-.55,2.39-0.21,2.9a0.43,0.43,0,0,0,.34.17,9.81,9.81,0,0,0,4.6-.1c0.62-.25.79-0.41,0.09-2.19a5.7,5.7,0,0,1-.51-1.85,14.75,14.75,0,0,0-.77-3.59,20.27,20.27,0,0,1-1.11-7.58h0c0-.48.1-1.1,0.16-1.64L32.57,21a1,1,0,0,1,2,.2l-0.06.61,0,0.33a12,12,0,0,0,3.11-1c-0.1-.56-0.22-1.34-0.29-2.15A1,1,0,0,1,38.2,18a1,1,0,0,1,1.08.91,23.39,23.39,0,0,0,.34,2.41,4.63,4.63,0,0,1,.42,1.3c0.87,3.75,2.35,7.64,6.78,8a6,6,0,0,0,4.87-1.74C53.34,27.19,54.13,24.53,54,21.33ZM39.36,14.09a1,1,0,0,1-.85-0.47,1.86,1.86,0,0,0-1-.56,1,1,0,0,1-.78-1.18,1,1,0,0,1,1.17-.78,3.8,3.8,0,0,1,2.33,1.47A1,1,0,0,1,39.36,14.09ZM32.42,7.21a1.31,1.31,0,0,0-1.57,1.13c-0.34,1-.18,2.31.58,2.58a1,1,0,0,1-.32,1.95,1,1,0,0,1-.32-0.05c-2-.68-2.49-3.13-1.83-5.1s2.31-3,4.09-2.39A1,1,0,1,1,32.42,7.21Z"/></svg>