<svg xmlns="http://www.w3.org/2000/svg" viewBox="0 0 322.26 466.47"><defs><style>.a{fill:#fff;}</style></defs><title>free</title><path d="M317.52,234.51c-0.24.36-.45,0.73-0.69,1.09L171.12,453.84a28.42,28.42,0,0,1-39.21,8L12.72,383.13a28.37,28.37,0,0,1-8-39.31L150.44,125.58c0.2-.31.42-0.61,0.62-0.93a24.84,24.84,0,0,1,16.29-11.56L271.27,91.79a24.8,24.8,0,0,1,29.2,19.3L321.75,215a24.76,24.76,0,0,1-4.23,19.52h0Z"/><path class="a" d="M305.49,226.53c-0.2.35-.39,0.71-0.63,1.07L159.15,445.84a14,14,0,0,1-19.3,3.93L20.66,371.1a14,14,0,0,1-4-19.3L162.42,133.58a9.2,9.2,0,0,1,.73-1,10.32,10.32,0,0,1,7.09-5.37l103.9-21.29A10.37,10.37,0,0,1,286.36,114l21.29,103.9a10.27,10.27,0,0,1-2.16,8.65h0Z"/><path d="M251.73,153.13A13.07,13.07,0,1,0,248,135a13.06,13.06,0,0,0,3.71,18.09h0Z"/><path d="M256.83,135.21a5,5,0,0,1-.42-3.79c7.81-26.85,11.8-49,13.13-66.86,1.61-21.16-.54-36-4.43-45.16A21.61,21.61,0,0,0,260.41,12a6.12,6.12,0,0,0-4.32-2,7.1,7.1,0,0,0-4.55,2.28,23.46,23.46,0,0,0-4.87,7.44c-3.59,8-5.7,20.12-4.75,36,0.8,13.53,3.8,29.68,10,48.32l0.43,1.32-0.76,1.18L248.59,111l-4.85.13-0.25-.79C236.49,90,233,72.2,232.06,57.26c-1.18-18.14,1.3-32.19,5.53-41.62a31.66,31.66,0,0,1,7.68-11.09A16.47,16.47,0,0,1,255.77,0a15.59,15.59,0,0,1,10.81,4.12,31.07,31.07,0,0,1,7.73,11.33c4.38,10.29,6.84,26.58,5.2,49.29-1.36,18.64-5.45,41.7-13.52,69.45a5.05,5.05,0,0,1-2.37,3h0a5,5,0,0,1-6.78-2h0Z"/><path d="M134,336.69l-15.18,22.72,22.82,15.28-8.84,13.2L76.07,350,102.75,310l10.11,6.78L95,343.51l13.64,9.11,15.18-22.72ZM150.6,314.3l21.68,14.51L163.46,342,106.73,304.1l14.58-21.85c4.41-6.57,9.39-10.77,15-12.56s11.06-1,16.35,2.56a15,15,0,0,1,6,7.38,19.56,19.56,0,0,1,.58,10.29c3.32-2.82,6.64-4.21,10-4.22a18.39,18.39,0,0,1,10.1,3.47l3.56,2.39a26.74,26.74,0,0,0,5.53,2.72,7.82,7.82,0,0,0,5.55.4l0.8,0.51-9.08,13.6c-1.47.48-3.38,0.21-5.64-.82a48.61,48.61,0,0,1-6-3.33l-3.41-2.3c-2.69-1.78-5.23-2.46-7.61-2s-4.5,2.09-6.36,4.83Zm-10.15-6.78,5.82-8.69c1.79-2.65,2.51-5.07,2.23-7.3a7.75,7.75,0,0,0-3.8-5.57,8.88,8.88,0,0,0-7-1.59c-2.4.47-4.46,2.05-6.21,4.66l-5.76,8.63Zm57.67-69.88-14.85,22.25,14.11,9.44,17.53-26.23,10.15,6.78L198.7,289.34l-56.76-38,26.41-39.52,10.15,6.78-17.59,26.29,12.21,8.17L188,230.88Zm30.37-45.39-14.89,22.25,14.15,9.44,17.53-26.23,10.13,6.76L229,243.93,172.29,206l26.43-39.54,10.13,6.76-17.59,26.34,12.21,8.17,14.87-22.27Z"/></svg>