<svg version="1.1" id="Layer_1" xmlns="http://www.w3.org/2000/svg" x="0" y="0" viewBox="0 0 130 68" xml:space="preserve"><style>.st1{fill:#fff}</style><path fill="#e65156" d="M0 0h130v68H0z"/><path class="st1" d="M47 26c0 5.2-1.7 9-4.7 11.8s-7.4 4.2-13 4.2H25v15H13V11h16c5.9 0 10.5 1.3 13.5 3.9S47 21.3 47 26zm-22 6h4c1.9 0 2.4-.7 3.5-1.8s1.6-2.7 1.5-4.2c0-3.1-1.5-5-5-5h-4v11zM88 33c0 7.7-1.7 13.9-5.9 18.1S71.7 57 64 57H49V11h16.1c7.4 0 13.2 1.9 17.2 5.7C86.4 20.5 88 25.8 88 33zm-12 1c.1-3.5-1-7-3.1-9.8-1.7-2.1-4.5-3.2-7.9-3.2h-4v26h3c3.8 0 7-1 8.8-3.2C75 41 76.1 37.5 76 34zM102 57H90V11h27v10h-15v9h13v10h-13v17z"/></svg>