<svg xmlns="http://www.w3.org/2000/svg" viewBox="0 0 56 38"><title>speed</title><path d="M53,38H3a3,3,0,0,1-3-3V28.56C0,13.23,12.21.42,27.21,0A28,28,0,0,1,56,28v7A3,3,0,0,1,53,38Zm1-10A26,26,0,0,0,28,2H27.27C13.34,2.39,2,14.3,2,28.56V35a1,1,0,0,0,1,1H53a1,1,0,0,0,1-1V28Zm-3,1H47a1,1,0,0,1,0-2h4A1,1,0,0,1,51,29Zm-6-9.63a1,1,0,1,1-1-1.73l3.46-2a1,1,0,1,1,1,1.73ZM44,28a1,1,0,0,1-1,1H31.86a4,4,0,1,1,0-2H43A1,1,0,0,1,44,28ZM28,26a2,2,0,1,0,2,2A2,2,0,0,0,28,26ZM38.37,12a1,1,0,0,1-1.73-1l2-3.46a1,1,0,0,1,1.73,1ZM28,10a1,1,0,0,1-1-1V5a1,1,0,1,1,2,0V9A1,1,0,0,1,28,10Zm-9.5,2.55a1,1,0,0,1-.87-0.5l-2-3.46a1,1,0,0,1,1.73-1l2,3.46A1,1,0,0,1,18.5,12.55Zm-7,7a1,1,0,0,1-.5-0.13l-3.46-2a1,1,0,1,1,1-1.73l3.47,2A1,1,0,0,1,11.54,19.5ZM10,28a1,1,0,0,1-1,1H5a1,1,0,0,1,0-2H9A1,1,0,0,1,10,28Z"/></svg>