<?xml version="1.0" encoding="utf-8"?>
<!-- Generator: Adobe Illustrator 17.1.0, SVG Export Plug-In . SVG Version: 6.00 Build 0)  -->
<!DOCTYPE svg PUBLIC "-//W3C//DTD SVG 1.1//EN" "http://www.w3.org/Graphics/SVG/1.1/DTD/svg11.dtd">
<svg version="1.1" id="Layer_1" xmlns="http://www.w3.org/2000/svg" xmlns:xlink="http://www.w3.org/1999/xlink" x="0px" y="0px"
	 viewBox="0 0 64.8 50.4" enable-background="new 0 0 64.8 50.4" xml:space="preserve">
<path fill-rule="evenodd" clip-rule="evenodd" d="M61.2,0H0v50.4h61.2c2,0,3.6-1.6,3.6-3.6V3.6C64.8,1.6,63.2,0,61.2,0z M48,20.4V30
	c0,2.7-2.2,4.8-4.8,4.8h-18l6-10.7v7.1l9.6-6l-7.5-4.7l2.7-4.9h7.2C45.8,15.6,48,17.8,48,20.4z M38.4,3.6c0-0.7,0.5-1.2,1.2-1.2h1.2
	c0.7,0,1.2,0.5,1.2,1.2v1.2C42,5.5,41.5,6,40.8,6h-1.2c-0.7,0-1.2-0.5-1.2-1.2V3.6z M18,42H2.4V8.4h34.8L18,42z M31.2,3.6
	c0-0.7,0.5-1.2,1.2-1.2h1.2c0.7,0,1.2,0.5,1.2,1.2v1.2c0,0.7-0.5,1.2-1.2,1.2h-1.2c-0.7,0-1.2-0.5-1.2-1.2V3.6z M24,3.6
	c0-0.7,0.5-1.2,1.2-1.2h1.2c0.7,0,1.2,0.5,1.2,1.2v1.2c0,0.7-0.5,1.2-1.2,1.2h-1.2C24.5,6,24,5.5,24,4.8V3.6z M16.8,3.6
	c0-0.7,0.5-1.2,1.2-1.2h1.2c0.7,0,1.2,0.5,1.2,1.2v1.2c0,0.7-0.5,1.2-1.2,1.2H18c-0.7,0-1.2-0.5-1.2-1.2V3.6z M9.6,3.6
	c0-0.7,0.5-1.2,1.2-1.2H12c0.7,0,1.2,0.5,1.2,1.2v1.2C13.2,5.5,12.7,6,12,6h-1.2c-0.7,0-1.2-0.5-1.2-1.2V3.6z M2.4,3.6
	c0-0.7,0.5-1.2,1.2-1.2h1.2C5.5,2.4,6,2.9,6,3.6v1.2C6,5.5,5.5,6,4.8,6H3.6C2.9,6,2.4,5.5,2.4,4.8V3.6z M6,46.8
	C6,47.5,5.5,48,4.8,48H3.6c-0.7,0-1.2-0.5-1.2-1.2v-1.2c0-0.7,0.5-1.2,1.2-1.2h1.2c0.7,0,1.2,0.5,1.2,1.2V46.8z M13.2,46.8
	c0,0.7-0.5,1.2-1.2,1.2h-1.2c-0.7,0-1.2-0.5-1.2-1.2v-1.2c0-0.7,0.5-1.2,1.2-1.2H12c0.7,0,1.2,0.5,1.2,1.2V46.8z M60.6,48h-42
	c-1,0-1.8-0.8-1.8-1.8c0-1,0.8-1.8,1.8-1.8h42c1,0,1.8,0.8,1.8,1.8C62.4,47.2,61.6,48,60.6,48z M60.6,6c-1,0-1.8-0.8-1.8-1.8
	c0-1,0.8-1.8,1.8-1.8c1,0,1.8,0.8,1.8,1.8C62.4,5.2,61.6,6,60.6,6z"/>
</svg>
